<?xml version="1.0" encoding="UTF-8"?>
<svg version="1.1" viewBox="0 0 1600 1600" width="1280" height="1280" xmlns="http://www.w3.org/2000/svg">
<path transform="translate(446,63)" d="m0 0h938l21 1 2 1v1129l1 49-2 2-4 1-1e3 1-36 2-20 3-21 7-16 8-11 8-12 11-8 9-7 11-8 16-4 13-2 13v20l3 17 8 20 9 14 12 14 10 9 15 10 16 8 17 6 18 3 9 1 27 1h976l30 1v59l-2 2-927 1h-79l-29-1-29-3-17-4-18-6-25-12-15-10-13-11-8-7-8-8-13-17-12-19-8-18-5-15-3-12-2-14-1-13-1-29v-1084l2-26 4-20 6-16 9-20 8-14 10-15 13-16 15-15 18-13 15-9 17-9 16-6 19-4 27-3 22-1zm206 62-247 1-26 1-24 3-15 4-16 7-14 9-10 8-10 9-10 13-11 19-8 19-4 18-2 20-1 410v426l1 138 11-7 13-9 16-9 16-7 15-5 19-4 25-3 17-1 42-1h913l2-1v-1056l-1-1-492-1z" fill="#6D26D3"/>
<path transform="translate(1049,322)" d="m0 0h33l16 3 12 5 10 6 14 14 8 13 6 15 3 16v28l-4 17-7 16-10 18-18 22-16 17-69 69-8 7-18 18-5 4-4 7 1 9 6 28 10 43 11 44 8 34 9 37 17 67 6 27 1 7v17l-4 13-6 11-8 10-12 13-13 10-11 4-11 1-9-2-11-7-7-7-10-16-14-27-46-92-17-35-15-30-8-17-1-5-6 3-10 9-50 50-8 7-35 35-8 11-1 7 6 28 5 27 6 26 1 6v11l-5 12-9 13-11 12-8 7-9 3-5 1h-9l-9-2-9-5-8-9-9-16-11-24-10-25-11-27-12-30-7-16-5-8-10-6-28-11-30-12-34-14-30-13-14-9-9-9-6-10-1-10 4-13 7-12 9-10 11-9 7-5 7-3h11l41 8 29 5 24 6 5-1 37-37 7-8 4-4h2l2-4 12-12h2l2-4 28-28h2l2-4 13-13v-2l-9-4-26-11-37-18-23-11-27-13-28-13-16-8-28-13-17-9-12-9-9-9-5-9v-14l4-12 7-11 9-10 9-9 18-11 12-4h12l17 2 38 7 62 14 69 15 64 14 48 10h7l8-6 7-9 26-26 7-8 41-41 6-7h2l1-3 6-5 7-8 8-7 7-7 12-9 14-9 12-6 16-5zm7 62-11 4-15 10-10 9-8 8-8 7-121 121-12 9-10-2-21-7-9-1-65-15-49-10-60-14-22-5-15-2h-6l5 5 10 5 25 11 28 14 18 8 24 11 14 7 33 15 34 16 16 8 4 3-13 13-9 11-110 110v2l-4 2-8 8-5 6-8 7-8 9-11 9-14 10-3 3 2 4 8 6 9 7 13 12 12 17 5 5 7-8 8-11 31-31 5-6 8-7 84-84 4-5 8-7 4-4v-2l4-2 27-27h2l8 16 23 47 10 19 23 47 28 56 13 25 5 6 1-4-8-28-6-26-9-33-10-42-7-30-13-52-6-26-5-15v-8l7-8 121-121 7-8 10-10 7-8 10-14 4-7 1-4v-19l-5-10-3-3-9-2z" fill="#6D27D4"/>
<path transform="translate(1344,178)" d="m0 0h1l1 114 1 184v68l-1 226v416l-24 1-672-1-180-1v-1l269-1h605l-1-63v-941z" fill="#422172"/>
<path transform="translate(545,1471)" d="m0 0h832l30 1v27h-1v-22h-2v-2h-121l-659-1-153-1v-1z" fill="#261146"/>
<path transform="translate(193,243)" d="m0 0h1l1 43v933l-1 127h-1l-1-11v-1084z" fill="#4A257F"/>
<path transform="translate(604,63)" d="m0 0h780l21 1 2 1v7l-2-4v-2h-378l-490-1v-1z" fill="#2F135A"/>
<path transform="translate(730,1183)" d="m0 0h615v3l-23 1-672-1-180-1v-1z" fill="#1E0D39"/>
<path transform="translate(429,1183)" d="m0 0h95v1l126 1 627 1v1h-754l-97-1-28-1v-1z" fill="#4F2887"/>
<path transform="translate(446,63)" d="m0 0h71l20 1 490 1v1l-605 1h-40l-1-2 12-1z" fill="#52288E"/>
<path transform="translate(193,1156)" d="m0 0h2v63l-1 127h-1l-1-11v-142z" fill="#542992"/>
<path transform="translate(429,1183)" d="m0 0h95v1l7 1v1l-8 1-97-1-28-1v-1z" fill="#552796"/>
<path transform="translate(1342,1183)" d="m0 0h3v3l-23 1h-45v-2l60-1z" fill="#110820"/>
</svg>
